<?xml version="1.0" encoding="utf-8"?>
<!-- Generator: Adobe Illustrator 26.5.0, SVG Export Plug-In . SVG Version: 6.00 Build 0)  -->
<svg version="1.1" xmlns="http://www.w3.org/2000/svg" xmlns:xlink="http://www.w3.org/1999/xlink" x="0px" y="0px"
	 viewBox="0 0 198.27 198" style="enable-background:new 0 0 198.27 198;" xml:space="preserve">
<style type="text/css">
	.st0{fill:none;stroke:#DADADA;stroke-miterlimit:10;}
	.st1{clip-path:url(#SVGID_00000077284659322592304240000009688108662033010065_);}
	.st2{fill:#F6BBD4;}
	.st3{fill:#FFFFFF;}
	.st4{fill:#D4007F;}
	.st5{fill:#1D1D1B;}
	.st6{fill:#2F1D11;}
	.st7{fill:#623917;}
	.st8{fill:#804A2A;}
	.st9{fill:#AF6A4B;}
	.st10{fill:#CC9663;}
	.st11{fill:#EDBE84;}
	.st12{fill:#FFC69F;}
	.st13{fill:#F7DDC4;}
	.st14{clip-path:url(#SVGID_00000038387635813520179010000014140108765685091983_);}
	.st15{fill:none;stroke:#FFFFFF;stroke-width:8;stroke-linecap:round;stroke-miterlimit:10;}
	.st16{fill:none;stroke:#FFFFFF;stroke-width:8;stroke-linecap:square;stroke-miterlimit:10;}
	.st17{fill:#A3C688;}
	
		.st18{clip-path:url(#SVGID_00000178906953276780716000000002222760072882933411_);fill:none;stroke:#FFFFFF;stroke-width:9.5475;stroke-linecap:round;stroke-miterlimit:10;}
	.st19{display:none;}
	.st20{display:inline;}
</style>
<symbol  id="Nuevo_símbolo" viewBox="-5801.4 -5801.4 11602.79 11602.79">
	<circle class="st0" cx="-8.79" cy="-8.76" r="99"/>
	<rect x="-58.29" y="-58.26" class="st0" width="99" height="99"/>
	<circle class="st0" cx="-8.79" cy="-8.76" r="71.22"/>
	<rect x="-107.79" y="-107.76" class="st0" width="198" height="198"/>
	<rect x="-8.8" y="-8.78" class="st0" width="99.02" height="99.02"/>
	<rect x="-8.8" y="-107.76" class="st0" width="99.02" height="99.02"/>
	<rect x="-107.79" y="-8.78" class="st0" width="99.02" height="99.02"/>
	<rect x="-107.79" y="-107.76" class="st0" width="99.02" height="99.02"/>
	<rect x="40.71" y="-107.76" class="st0" width="49.5" height="49.5"/>
	<rect x="40.71" y="40.74" class="st0" width="49.5" height="49.5"/>
	<rect x="-108.06" y="-107.76" class="st0" width="49.5" height="49.5"/>
	<rect x="-108.06" y="40.74" class="st0" width="49.5" height="49.5"/>
	<g>
		<defs>
			<rect id="SVGID_1_" x="-107.79" y="-107.76" width="198" height="198"/>
		</defs>
		<clipPath id="SVGID_00000049926307232087615850000006328939655886807682_">
			<use xlink:href="#SVGID_1_"  style="overflow:visible;"/>
		</clipPath>
		<g style="clip-path:url(#SVGID_00000049926307232087615850000006328939655886807682_);">
			<line class="st0" x1="5783.49" y1="-5801.04" x2="-5801.04" y2="5783.49"/>
			<line class="st0" x1="-5783.49" y1="-5783.49" x2="5801.04" y2="5801.04"/>
		</g>
	</g>
	<circle class="st0" cx="-8.79" cy="-8.76" r="86.38"/>
</symbol>
<g id="CIRCULOS">
	<circle class="st2" cx="99.13" cy="99" r="99.42"/>
</g>
<g id="EDIT">
	<g>
		<path class="st6" d="M149.43,149.42c12.88-12.87,20.84-30.66,20.84-50.31c0-0.04,0-0.07,0-0.11H99.13v0.12L149.43,149.42z"/>
		<path class="st7" d="M99.05,170.22c18.21,0,36.42-6.94,50.31-20.84c0.03-0.03,0.05-0.05,0.08-0.08L99.13,99l-0.08,0.08V170.22z"/>
		<path class="st8" d="M48.72,149.3c12.87,12.88,30.66,20.84,50.31,20.84c0.04,0,0.07,0,0.11,0V99h-0.12L48.72,149.3z"/>
		<path class="st9" d="M27.92,98.92c0,18.21,6.94,36.42,20.84,50.31c0.03,0.03,0.05,0.05,0.08,0.08L99.13,99l-0.08-0.08H27.92z"/>
		<path class="st10" d="M48.84,48.58C35.96,61.46,28,79.24,28,98.89c0,0.04,0,0.07,0,0.11h71.14v-0.12L48.84,48.58z"/>
		<path class="st11" d="M99.22,27.78c-18.21,0-36.42,6.94-50.31,20.84c-0.03,0.03-0.05,0.05-0.08,0.08L99.13,99l0.08-0.08V27.78z"/>
		<path class="st12" d="M149.55,48.7c-12.87-12.88-30.66-20.84-50.31-20.84c-0.04,0-0.07,0-0.11,0V99h0.12L149.55,48.7z"/>
		<path class="st13" d="M170.35,99.08c0-18.21-6.94-36.42-20.84-50.31c-0.03-0.03-0.05-0.05-0.08-0.08L99.13,99l0.08,0.08H170.35z"
			/>
	</g>
	<path class="st3" d="M99.28,130.47c-0.09,0.11-0.27,0.11-0.36,0c0,0-28.13-17.98-28.13-36.61c0-7.66,6.82-13.94,15.27-13.83
		c5.52,0.07,10.33,2.85,12.88,6.93c0.09,0.14,0.3,0.14,0.39,0c2.59-4.15,7.52-6.95,13.16-6.93c8.12,0.03,14.99,6.2,14.99,13.56
		C127.48,113.31,99.28,130.47,99.28,130.47z"/>
</g>
<g id="LISTADO_-_BORRAR_AL_ACABAR">
</g>
<g id="reticula" class="st19">
	
		<use xlink:href="#Nuevo_símbolo"  width="11602.79" height="11602.79" id="XMLID_00000016796735743011627350000005260572568738657726_" x="-5801.4" y="-5801.4" transform="matrix(1 0 0 -1 565.1221 90.2387)" style="display:inline;overflow:visible;"/>
	
		<use xlink:href="#Nuevo_símbolo"  width="11602.79" height="11602.79" id="XMLID_00000146479788864309340400000009410855846206404266_" x="-5801.4" y="-5801.4" transform="matrix(1 0 0 -1 333.0781 90.2387)" style="display:inline;overflow:visible;"/>
	
		<use xlink:href="#Nuevo_símbolo"  width="11602.79" height="11602.79" id="XMLID_00000034785294087635283470000001137162249589097133_" x="-5801.4" y="-5801.4" transform="matrix(1 0 0 -1 108.0639 90.2387)" style="display:inline;overflow:visible;"/>
	
		<use xlink:href="#Nuevo_símbolo"  width="11602.79" height="11602.79" id="XMLID_00000083770960207716204920000004271338834193863581_" x="-5801.4" y="-5801.4" transform="matrix(1 0 0 -1 -116.8028 90.2387)" style="display:inline;overflow:visible;"/>
</g>
<g id="GUIAS" class="st19">
</g>
</svg>
