<?xml version="1.0" encoding="utf-8"?>
<!-- Generator: Adobe Illustrator 26.5.0, SVG Export Plug-In . SVG Version: 6.00 Build 0)  -->
<svg version="1.1" xmlns="http://www.w3.org/2000/svg" xmlns:xlink="http://www.w3.org/1999/xlink" x="0px" y="0px"
	 viewBox="0 0 198.27 198" style="enable-background:new 0 0 198.27 198;" xml:space="preserve">
<style type="text/css">
	.st0{fill:none;stroke:#DADADA;stroke-miterlimit:10;}
	.st1{clip-path:url(#SVGID_00000143583913183624283740000014505570264985398713_);}
	.st2{fill:#F6BBD4;}
	.st3{fill:#FFFFFF;}
	.st4{fill:#D4007F;}
	.st5{fill:#1D1D1B;}
	.st6{fill:#2F1D11;}
	.st7{fill:#623917;}
	.st8{fill:#804A2A;}
	.st9{fill:#AF6A4B;}
	.st10{fill:#CC9663;}
	.st11{fill:#EDBE84;}
	.st12{fill:#FFC69F;}
	.st13{fill:#F7DDC4;}
	.st14{clip-path:url(#SVGID_00000183207008041451555980000004141951073847143812_);}
	.st15{fill:none;stroke:#FFFFFF;stroke-width:8;stroke-linecap:round;stroke-miterlimit:10;}
	.st16{fill:none;stroke:#FFFFFF;stroke-width:8;stroke-linecap:square;stroke-miterlimit:10;}
	.st17{fill:#A3C688;}
	
		.st18{clip-path:url(#SVGID_00000090254183770436623210000016938768185010958252_);fill:none;stroke:#FFFFFF;stroke-width:9.5475;stroke-linecap:round;stroke-miterlimit:10;}
	.st19{display:none;}
	.st20{display:inline;}
</style>
<symbol  id="Nuevo_símbolo" viewBox="-5801.4 -5801.4 11602.79 11602.79">
	<circle class="st0" cx="-8.79" cy="-8.76" r="99"/>
	<rect x="-58.29" y="-58.26" class="st0" width="99" height="99"/>
	<circle class="st0" cx="-8.79" cy="-8.76" r="71.22"/>
	<rect x="-107.79" y="-107.76" class="st0" width="198" height="198"/>
	<rect x="-8.8" y="-8.78" class="st0" width="99.02" height="99.02"/>
	<rect x="-8.8" y="-107.76" class="st0" width="99.02" height="99.02"/>
	<rect x="-107.79" y="-8.78" class="st0" width="99.02" height="99.02"/>
	<rect x="-107.79" y="-107.76" class="st0" width="99.02" height="99.02"/>
	<rect x="40.71" y="-107.76" class="st0" width="49.5" height="49.5"/>
	<rect x="40.71" y="40.74" class="st0" width="49.5" height="49.5"/>
	<rect x="-108.06" y="-107.76" class="st0" width="49.5" height="49.5"/>
	<rect x="-108.06" y="40.74" class="st0" width="49.5" height="49.5"/>
	<g>
		<defs>
			<rect id="SVGID_1_" x="-107.79" y="-107.76" width="198" height="198"/>
		</defs>
		<clipPath id="SVGID_00000026144936908088221510000010787488226828972422_">
			<use xlink:href="#SVGID_1_"  style="overflow:visible;"/>
		</clipPath>
		<g style="clip-path:url(#SVGID_00000026144936908088221510000010787488226828972422_);">
			<line class="st0" x1="5783.49" y1="-5801.04" x2="-5801.04" y2="5783.49"/>
			<line class="st0" x1="-5783.49" y1="-5783.49" x2="5801.04" y2="5801.04"/>
		</g>
	</g>
	<circle class="st0" cx="-8.79" cy="-8.76" r="86.38"/>
</symbol>
<g id="CIRCULOS">
	<circle class="st2" cx="99.13" cy="99" r="99.42"/>
</g>
<g id="EDIT">
	<circle class="st4" cx="99.27" cy="99" r="71.22"/>
	<g>
		<defs>
			<circle id="SVGID_00000040564842020015082400000015238755511535643520_" cx="99.27" cy="99" r="71.22"/>
		</defs>
		<clipPath id="SVGID_00000116942332110806349630000006064895962700909707_">
			<use xlink:href="#SVGID_00000040564842020015082400000015238755511535643520_"  style="overflow:visible;"/>
		</clipPath>
		<g style="clip-path:url(#SVGID_00000116942332110806349630000006064895962700909707_);">
			<g>
				<path class="st3" d="M99.13,80.08c15.02,0,27.24,12.22,27.24,27.24s-12.22,27.24-27.24,27.24S71.9,122.34,71.9,107.32
					S84.12,80.08,99.13,80.08 M99.13,73.08c-18.91,0-34.24,15.33-34.24,34.24s15.33,34.24,34.24,34.24s34.24-15.33,34.24-34.24
					S118.04,73.08,99.13,73.08L99.13,73.08z"/>
			</g>
			<g>
				<line class="st15" x1="99.29" y1="139.69" x2="99.29" y2="177.67"/>
			</g>
			<line class="st16" x1="88.42" y1="155.72" x2="109.85" y2="155.72"/>
			<g>
				<g>
					<line class="st15" x1="117.42" y1="81.31" x2="143.5" y2="55.24"/>
				</g>
				<polyline class="st15" points="123.29,53.06 145.48,53.06 145.48,74.78 				"/>
			</g>
			<g>
				<g>
					<line class="st15" x1="80.92" y1="81.09" x2="55.07" y2="55.24"/>
				</g>
				<polyline class="st15" points="75.28,53.06 53.09,53.06 53.09,74.78 				"/>
			</g>
			<line class="st16" x1="67.05" y1="76.88" x2="76.71" y2="67.22"/>
		</g>
	</g>
</g>
<g id="LISTADO_-_BORRAR_AL_ACABAR">
</g>
<g id="reticula" class="st19">
	
		<use xlink:href="#Nuevo_símbolo"  width="11602.79" height="11602.79" id="XMLID_00000016796735743011627350000005260572568738657726_" x="-5801.4" y="-5801.4" transform="matrix(1 0 0 -1 108.0639 90.2387)" style="display:inline;overflow:visible;"/>
	
		<use xlink:href="#Nuevo_símbolo"  width="11602.79" height="11602.79" id="XMLID_00000146479788864309340400000009410855846206404266_" x="-5801.4" y="-5801.4" transform="matrix(1 0 0 -1 -123.9801 90.2387)" style="display:inline;overflow:visible;"/>
	
		<use xlink:href="#Nuevo_símbolo"  width="11602.79" height="11602.79" id="XMLID_00000034785294087635283470000001137162249589097133_" x="-5801.4" y="-5801.4" transform="matrix(1 0 0 -1 -348.9943 90.2387)" style="display:inline;overflow:visible;"/>
	
		<use xlink:href="#Nuevo_símbolo"  width="11602.79" height="11602.79" id="XMLID_00000083770960207716204920000004271338834193863581_" x="-5801.4" y="-5801.4" transform="matrix(1 0 0 -1 -573.861 90.2387)" style="display:inline;overflow:visible;"/>
</g>
<g id="GUIAS" class="st19">
</g>
</svg>
