<?xml version="1.0" encoding="utf-8"?>
<!-- Generator: Adobe Illustrator 26.5.0, SVG Export Plug-In . SVG Version: 6.00 Build 0)  -->
<svg version="1.1" xmlns="http://www.w3.org/2000/svg" xmlns:xlink="http://www.w3.org/1999/xlink" x="0px" y="0px"
	 viewBox="0 0 198.27 198" style="enable-background:new 0 0 198.27 198;" xml:space="preserve">
<style type="text/css">
	.st0{fill:none;stroke:#DADADA;stroke-miterlimit:10;}
	.st1{clip-path:url(#SVGID_00000163052537913252445440000012462824173504874642_);}
	.st2{fill:#FFFFFF;}
	.st3{fill:#1D1D1B;}
	.st4{fill:#F6BBD4;}
	.st5{fill:#D4007F;}
	.st6{fill:#2F1D11;}
	.st7{fill:#623917;}
	.st8{fill:#804A2A;}
	.st9{fill:#AF6A4B;}
	.st10{fill:#CC9663;}
	.st11{fill:#EDBE84;}
	.st12{fill:#FFC69F;}
	.st13{fill:#F7DDC4;}
	.st14{clip-path:url(#SVGID_00000052081568288159677570000014050361988502907276_);}
	.st15{fill:none;stroke:#FFFFFF;stroke-width:8;stroke-linecap:round;stroke-miterlimit:10;}
	.st16{fill:none;stroke:#FFFFFF;stroke-width:8;stroke-linecap:square;stroke-miterlimit:10;}
	.st17{fill:#A3C688;}
	
		.st18{clip-path:url(#SVGID_00000060003835090489900800000008721353711763743909_);fill:none;stroke:#FFFFFF;stroke-width:9.5475;stroke-linecap:round;stroke-miterlimit:10;}
	.st19{display:none;}
	.st20{display:inline;}
</style>
<symbol  id="Nuevo_símbolo" viewBox="-5801.4 -5801.4 11602.79 11602.79">
	<circle class="st0" cx="-8.79" cy="-8.76" r="99"/>
	<rect x="-58.29" y="-58.26" class="st0" width="99" height="99"/>
	<circle class="st0" cx="-8.79" cy="-8.76" r="71.22"/>
	<rect x="-107.79" y="-107.76" class="st0" width="198" height="198"/>
	<rect x="-8.8" y="-8.78" class="st0" width="99.02" height="99.02"/>
	<rect x="-8.8" y="-107.76" class="st0" width="99.02" height="99.02"/>
	<rect x="-107.79" y="-8.78" class="st0" width="99.02" height="99.02"/>
	<rect x="-107.79" y="-107.76" class="st0" width="99.02" height="99.02"/>
	<rect x="40.71" y="-107.76" class="st0" width="49.5" height="49.5"/>
	<rect x="40.71" y="40.74" class="st0" width="49.5" height="49.5"/>
	<rect x="-108.06" y="-107.76" class="st0" width="49.5" height="49.5"/>
	<rect x="-108.06" y="40.74" class="st0" width="49.5" height="49.5"/>
	<g>
		<defs>
			<rect id="SVGID_1_" x="-107.79" y="-107.76" width="198" height="198"/>
		</defs>
		<clipPath id="SVGID_00000026150028332574114300000003874372451399245752_">
			<use xlink:href="#SVGID_1_"  style="overflow:visible;"/>
		</clipPath>
		<g style="clip-path:url(#SVGID_00000026150028332574114300000003874372451399245752_);">
			<line class="st0" x1="5783.49" y1="-5801.04" x2="-5801.04" y2="5783.49"/>
			<line class="st0" x1="-5783.49" y1="-5783.49" x2="5801.04" y2="5801.04"/>
		</g>
	</g>
	<circle class="st0" cx="-8.79" cy="-8.76" r="86.38"/>
</symbol>
<symbol  id="Nuevo_símbolo_4" viewBox="-24.59 -40.05 49.18 80.1">
	<path class="st2" d="M24.22,40.05C10.27,34.58-3.14,23.33-12.63,7.64s-13.23-32.8-11.59-47.69c13.94,5.47,27.36,16.72,36.85,32.41
		S25.85,25.16,24.22,40.05z"/>
</symbol>
<symbol  id="Nuevo_símbolo_5" viewBox="-6.17 -6.17 12.35 12.35">
	<circle class="st3" cx="0" cy="0" r="6.17"/>
	<polygon class="st3" points="0,6.17 6.17,6.17 6.17,0 	"/>
</symbol>
<g id="CIRCULOS">
	<circle class="st4" cx="99.13" cy="99" r="99.42"/>
</g>
<g id="EDIT">
	<g>
		
			<use xlink:href="#Nuevo_símbolo_4"  width="49.18" height="80.1" id="XMLID_00000046340195030815078840000004449835580343050942_" x="-24.59" y="-40.05" transform="matrix(1 0 0 -1 135.4746 78.0256)" style="overflow:visible;"/>
		
			<use xlink:href="#Nuevo_símbolo_4"  width="49.18" height="80.1" id="XMLID_00000090266500229054440040000016872314786140043956_" x="-24.59" y="-40.05" transform="matrix(-1 0 0 -1 62.7953 78.0256)" style="overflow:visible;"/>
		<path class="st2" d="M136.26,127.27c-2.59-1.74-4.03-4.69-4.03-7.81c0-0.02,0-0.04,0-0.05c0-16.11-14.82-29.17-33.1-29.17
			s-33.1,13.06-33.1,29.17c0,0.02,0,0.04,0,0.05c0.01,3.12-1.44,6.06-4.03,7.81c-6.74,4.53-10.78,10.32-10.78,16.63
			c0,14.54,21.45,26.32,47.9,26.32s47.9-11.78,47.9-26.32C147.04,137.59,142.99,131.8,136.26,127.27z"/>
		<path class="st5" d="M99.21,159.09c-0.03,0.04-0.09,0.04-0.13,0c0,0-9.75-6.23-9.75-12.69c0-2.65,2.37-4.83,5.3-4.79
			c1.92,0.03,3.58,0.99,4.46,2.4c0.03,0.05,0.11,0.05,0.14,0c0.9-1.44,2.61-2.41,4.56-2.4c2.82,0.01,5.2,2.15,5.2,4.7
			C108.99,153.14,99.21,159.09,99.21,159.09z"/>
		<g>
			
				<use xlink:href="#Nuevo_símbolo_5"  width="12.35" height="12.35" id="XMLID_00000176023974382039665390000004532248415451131566_" x="-6.17" y="-6.17" transform="matrix(1 0 0 -1 115.2013 127.3386)" style="overflow:visible;"/>
			
				<use xlink:href="#Nuevo_símbolo_5"  width="12.35" height="12.35" x="-6.17" y="-6.17" transform="matrix(-1 0 0 -1 83.0686 127.3386)" style="overflow:visible;"/>
		</g>
	</g>
</g>
<g id="LISTADO_-_BORRAR_AL_ACABAR">
</g>
<g id="reticula" class="st19">
	
		<use xlink:href="#Nuevo_símbolo"  width="11602.79" height="11602.79" id="XMLID_00000016796735743011627350000005260572568738657726_" x="-5801.4" y="-5801.4" transform="matrix(1 0 0 -1 789.9887 90.2387)" style="display:inline;overflow:visible;"/>
	
		<use xlink:href="#Nuevo_símbolo"  width="11602.79" height="11602.79" id="XMLID_00000146479788864309340400000009410855846206404266_" x="-5801.4" y="-5801.4" transform="matrix(1 0 0 -1 557.9448 90.2387)" style="display:inline;overflow:visible;"/>
	
		<use xlink:href="#Nuevo_símbolo"  width="11602.79" height="11602.79" id="XMLID_00000034785294087635283470000001137162249589097133_" x="-5801.4" y="-5801.4" transform="matrix(1 0 0 -1 332.9305 90.2387)" style="display:inline;overflow:visible;"/>
	
		<use xlink:href="#Nuevo_símbolo"  width="11602.79" height="11602.79" id="XMLID_00000083770960207716204920000004271338834193863581_" x="-5801.4" y="-5801.4" transform="matrix(1 0 0 -1 108.0639 90.2387)" style="display:inline;overflow:visible;"/>
</g>
<g id="GUIAS" class="st19">
</g>
</svg>
