<?xml version="1.0" encoding="utf-8"?>
<!-- Generator: Adobe Illustrator 26.5.0, SVG Export Plug-In . SVG Version: 6.00 Build 0)  -->
<svg version="1.1" xmlns="http://www.w3.org/2000/svg" xmlns:xlink="http://www.w3.org/1999/xlink" x="0px" y="0px"
	 viewBox="0 0 198.27 198" style="enable-background:new 0 0 198.27 198;" xml:space="preserve">
<style type="text/css">
	.st0{fill:none;stroke:#DADADA;stroke-miterlimit:10;}
	.st1{clip-path:url(#SVGID_00000010278570616984965660000017231485646429408954_);}
	.st2{fill:#FFFFFF;}
	.st3{fill:#F6BBD4;}
	.st4{fill:#D4007F;}
	.st5{fill:#1D1D1B;}
	.st6{fill:#2F1D11;}
	.st7{fill:#623917;}
	.st8{fill:#804A2A;}
	.st9{fill:#AF6A4B;}
	.st10{fill:#CC9663;}
	.st11{fill:#EDBE84;}
	.st12{fill:#FFC69F;}
	.st13{fill:#F7DDC4;}
	.st14{clip-path:url(#SVGID_00000078042274900152115980000003611466394399323043_);}
	.st15{fill:none;stroke:#FFFFFF;stroke-width:8;stroke-linecap:round;stroke-miterlimit:10;}
	.st16{fill:none;stroke:#FFFFFF;stroke-width:8;stroke-linecap:square;stroke-miterlimit:10;}
	.st17{fill:#A3C688;}
	
		.st18{clip-path:url(#SVGID_00000000930383571030270970000014692859369095590030_);fill:none;stroke:#FFFFFF;stroke-width:9.5475;stroke-linecap:round;stroke-miterlimit:10;}
	.st19{display:none;}
	.st20{display:inline;}
</style>
<symbol  id="Nuevo_símbolo" viewBox="-5801.4 -5801.4 11602.79 11602.79">
	<circle class="st0" cx="-8.79" cy="-8.76" r="99"/>
	<rect x="-58.29" y="-58.26" class="st0" width="99" height="99"/>
	<circle class="st0" cx="-8.79" cy="-8.76" r="71.22"/>
	<rect x="-107.79" y="-107.76" class="st0" width="198" height="198"/>
	<rect x="-8.8" y="-8.78" class="st0" width="99.02" height="99.02"/>
	<rect x="-8.8" y="-107.76" class="st0" width="99.02" height="99.02"/>
	<rect x="-107.79" y="-8.78" class="st0" width="99.02" height="99.02"/>
	<rect x="-107.79" y="-107.76" class="st0" width="99.02" height="99.02"/>
	<rect x="40.71" y="-107.76" class="st0" width="49.5" height="49.5"/>
	<rect x="40.71" y="40.74" class="st0" width="49.5" height="49.5"/>
	<rect x="-108.06" y="-107.76" class="st0" width="49.5" height="49.5"/>
	<rect x="-108.06" y="40.74" class="st0" width="49.5" height="49.5"/>
	<g>
		<defs>
			<rect id="SVGID_1_" x="-107.79" y="-107.76" width="198" height="198"/>
		</defs>
		<clipPath id="SVGID_00000165952450966853923350000010284142013040882105_">
			<use xlink:href="#SVGID_1_"  style="overflow:visible;"/>
		</clipPath>
		<g style="clip-path:url(#SVGID_00000165952450966853923350000010284142013040882105_);">
			<line class="st0" x1="5783.49" y1="-5801.04" x2="-5801.04" y2="5783.49"/>
			<line class="st0" x1="-5783.49" y1="-5783.49" x2="5801.04" y2="5801.04"/>
		</g>
	</g>
	<circle class="st0" cx="-8.79" cy="-8.76" r="86.38"/>
</symbol>
<symbol  id="Nuevo_símbolo_4" viewBox="-24.59 -40.05 49.18 80.1">
	<path class="st2" d="M24.22,40.05C10.27,34.58-3.14,23.33-12.63,7.64s-13.23-32.8-11.59-47.69c13.94,5.47,27.36,16.72,36.85,32.41
		S25.85,25.16,24.22,40.05z"/>
</symbol>
<g id="CIRCULOS">
	<circle class="st3" cx="99.13" cy="99" r="99.42"/>
</g>
<g id="EDIT">
	<circle class="st17" cx="99.27" cy="99" r="71.22"/>
	<g>
		<g>
			<defs>
				<circle id="SVGID_00000025441341794015763160000010505414831217320069_" cx="99.27" cy="99" r="71.22"/>
			</defs>
			<clipPath id="SVGID_00000109011459363721425730000011844510765859822015_">
				<use xlink:href="#SVGID_00000025441341794015763160000010505414831217320069_"  style="overflow:visible;"/>
			</clipPath>
			
				<polyline style="clip-path:url(#SVGID_00000109011459363721425730000011844510765859822015_);fill:none;stroke:#FFFFFF;stroke-width:9.5475;stroke-linecap:round;stroke-miterlimit:10;" points="
				55.36,62.73 99.13,169.49 142.91,62.73 			"/>
		</g>
		
			<use xlink:href="#Nuevo_símbolo_4"  width="49.18" height="80.1" x="-24.59" y="-40.05" transform="matrix(1.0104 -0.1673 -0.1673 -1.0104 129.0434 90.0496)" style="overflow:visible;"/>
	</g>
	
		<use xlink:href="#Nuevo_símbolo_4"  width="49.18" height="80.1" x="-24.59" y="-40.05" transform="matrix(-0.5259 -0.1182 0.1182 -0.5259 102.6498 105.2866)" style="overflow:visible;"/>
</g>
<g id="LISTADO_-_BORRAR_AL_ACABAR">
</g>
<g id="reticula" class="st19">
	
		<use xlink:href="#Nuevo_símbolo"  width="11602.79" height="11602.79" id="XMLID_00000016796735743011627350000005260572568738657726_" x="-5801.4" y="-5801.4" transform="matrix(1 0 0 -1 340.1078 90.2387)" style="display:inline;overflow:visible;"/>
	
		<use xlink:href="#Nuevo_símbolo"  width="11602.79" height="11602.79" id="XMLID_00000146479788864309340400000009410855846206404266_" x="-5801.4" y="-5801.4" transform="matrix(1 0 0 -1 108.0639 90.2387)" style="display:inline;overflow:visible;"/>
	
		<use xlink:href="#Nuevo_símbolo"  width="11602.79" height="11602.79" id="XMLID_00000034785294087635283470000001137162249589097133_" x="-5801.4" y="-5801.4" transform="matrix(1 0 0 -1 -116.9504 90.2387)" style="display:inline;overflow:visible;"/>
	
		<use xlink:href="#Nuevo_símbolo"  width="11602.79" height="11602.79" id="XMLID_00000083770960207716204920000004271338834193863581_" x="-5801.4" y="-5801.4" transform="matrix(1 0 0 -1 -341.817 90.2387)" style="display:inline;overflow:visible;"/>
</g>
<g id="GUIAS" class="st19">
</g>
</svg>
